/* XPM */
static char * coloane_xpm[] = {
"48 48 362 2",
"  	c None",
". 	c #7DB222",
"+ 	c #76AF23",
"@ 	c #28932C",
"# 	c #028630",
"$ 	c #73AE23",
"% 	c #78B023",
"& 	c #6BAB23",
"* 	c #3E9B2A",
"= 	c #018630",
"- 	c #008630",
"; 	c #008530",
"> 	c #66A824",
", 	c #0E8A2F",
"' 	c #4A9F28",
") 	c #62A924",
"! 	c #3A9B2E",
"~ 	c #1F912C",
"{ 	c #00842F",
"] 	c #7EB221",
"^ 	c #7EB322",
"/ 	c #4BAA6E",
"( 	c #018530",
"_ 	c #04862F",
": 	c #83BC62",
"< 	c #71AE24",
"[ 	c #038630",
"} 	c #7DB322",
"| 	c #7DB122",
"1 	c #24964D",
"2 	c #9ED2B1",
"3 	c #4FAC71",
"4 	c #79BE93",
"5 	c #83C497",
"6 	c #2A9536",
"7 	c #72B024",
"8 	c #7BB122",
"9 	c #7EB222",
"0 	c #7CB122",
"a 	c #6CAB24",
"b 	c #7DB223",
"c 	c #20902C",
"d 	c #22912C",
"e 	c #03872F",
"f 	c #138E3F",
"g 	c #51AA69",
"h 	c #7FC08D",
"i 	c #62B477",
"j 	c #8BC89B",
"k 	c #E2F2E7",
"l 	c #9ED0A5",
"m 	c #7EB431",
"n 	c #479F28",
"o 	c #25932B",
"p 	c #79B222",
"q 	c #7CB222",
"r 	c #108C2E",
"s 	c #22922C",
"t 	c #61A926",
"u 	c #83B42A",
"v 	c #A9CC70",
"w 	c #ACCE73",
"x 	c #188E2E",
"y 	c #76AF22",
"z 	c #0C8B2F",
"A 	c #7AB122",
"B 	c #7EB223",
"C 	c #68AA24",
"D 	c #6EAD24",
"E 	c #4FA227",
"F 	c #2B942C",
"G 	c #75AE23",
"H 	c #7DAD22",
"I 	c #188F2D",
"J 	c #53A327",
"K 	c #36982A",
"L 	c #469E28",
"M 	c #21912C",
"N 	c #0F8B2E",
"O 	c #6EAD23",
"P 	c #77B022",
"Q 	c #3A9829",
"R 	c #426824",
"S 	c #69491C",
"T 	c #76841F",
"U 	c #6EAC23",
"V 	c #178C2E",
"W 	c #5EA725",
"X 	c #58A526",
"Y 	c #1A8E2D",
"Z 	c #09822F",
"` 	c #578023",
" .	c #6DAD23",
"..	c #449D29",
"+.	c #78B022",
"@.	c #29932B",
"#.	c #2A942C",
"$.	c #376A26",
"%.	c #585220",
"&.	c #276F29",
"*.	c #6C471B",
"=.	c #7B9821",
"-.	c #5DA626",
";.	c #50A127",
">.	c #5FA825",
",.	c #479F2A",
"'.	c #06872F",
").	c #0F8A2E",
"!.	c #188D2D",
"~.	c #66611F",
"{.	c #839E44",
"].	c #77B023",
"^.	c #329B46",
"/.	c #22943D",
"(.	c #03862F",
"_.	c #465D23",
":.	c #6E461B",
"<.	c #06812E",
"[.	c #407426",
"}.	c #7DAE21",
"|.	c #73AF2D",
"1.	c #38992A",
"2.	c #449D28",
"3.	c #3E9B29",
"4.	c #2B952B",
"5.	c #68AA25",
"6.	c #67AA25",
"7.	c #75AF23",
"8.	c #71AD26",
"9.	c #71AD23",
"0.	c #7DA928",
"a.	c #7EB449",
"b.	c #17903F",
"c.	c #D4ECE3",
"d.	c #88C79F",
"e.	c #61B37E",
"f.	c #545621",
"g.	c #4E5921",
"h.	c #86B643",
"i.	c #5EA726",
"j.	c #59A526",
"k.	c #068730",
"l.	c #59A626",
"m.	c #479E28",
"n.	c #5C9324",
"o.	c #489327",
"p.	c #73AF23",
"q.	c #B2E2E0",
"r.	c #C8EFFF",
"s.	c #D4EEF5",
"t.	c #916D39",
"u.	c #515620",
"v.	c #028530",
"w.	c #6CAC23",
"x.	c #7DB321",
"y.	c #76B023",
"z.	c #66A823",
"A.	c #078631",
"B.	c #29942B",
"C.	c #58A527",
"D.	c #757C1E",
"E.	c #675323",
"F.	c #485F23",
"G.	c #378728",
"H.	c #5FA625",
"I.	c #63A926",
"J.	c #74AF23",
"K.	c #B1DBBD",
"L.	c #C7EFFF",
"M.	c #A49575",
"N.	c #8C6227",
"O.	c #02842F",
"P.	c #00832E",
"Q.	c #2A952B",
"R.	c #52A326",
"S.	c #60A726",
"T.	c #138C2E",
"U.	c #88A33B",
"V.	c #F1F4F1",
"W.	c #D2E6D6",
"X.	c #907656",
"Y.	c #5A5F2C",
"Z.	c #339752",
"`.	c #1D9135",
" +	c #A5D299",
".+	c #B9C8C4",
"++	c #936832",
"@+	c #92BFAB",
"#+	c #52A227",
"$+	c #7DB123",
"%+	c #09882F",
"&+	c #1D902C",
"*+	c #AAD28E",
"=+	c #EAFAFF",
"-+	c #FDFFFF",
";+	c #FAFCFB",
">+	c #7E5C36",
",+	c #999683",
"'+	c #AFE3E5",
")+	c #41A671",
"!+	c #51AA6F",
"~+	c #946B34",
"{+	c #B3BCB1",
"]+	c #75C3AB",
"^+	c #078730",
"/+	c #7DB323",
"(+	c #55A426",
"_+	c #20912D",
":+	c #87B93E",
"<+	c #8EC054",
"[+	c #9ECD84",
"}+	c #D1F2FF",
"|+	c #FCFEFD",
"1+	c #744E25",
"2+	c #91754B",
"3+	c #C1DDE4",
"4+	c #908C64",
"5+	c #9B7F53",
"6+	c #C6EEFE",
"7+	c #399B29",
"8+	c #3D9C29",
"9+	c #30972A",
"0+	c #BEE9E5",
"a+	c #9ECD85",
"b+	c #51A63B",
"c+	c #A4DBD3",
"d+	c #CDDEDF",
"e+	c #867357",
"f+	c #BDD4D5",
"g+	c #977442",
"h+	c #B2BCB1",
"i+	c #906328",
"j+	c #BBD2D3",
"k+	c #C6EEFF",
"l+	c #0C892E",
"m+	c #22912D",
"n+	c #89BD50",
"o+	c #A1D08F",
"p+	c #61A825",
"q+	c #58B38A",
"r+	c #B3C8CA",
"s+	c #A7B2AC",
"t+	c #A59678",
"u+	c #906228",
"v+	c #957240",
"w+	c #C7EDFD",
"x+	c #C6EFFF",
"y+	c #1C8F2D",
"z+	c #99D4C0",
"A+	c #AFDAB5",
"B+	c #409D29",
"C+	c #87CCBB",
"D+	c #ABB8B5",
"E+	c #B0C4C5",
"F+	c #C2E4EE",
"G+	c #906227",
"H+	c #B1B5A6",
"I+	c #C7EEFF",
"J+	c #C0E9E7",
"K+	c #158F3E",
"L+	c #BDEAF6",
"M+	c #A1A79E",
"N+	c #BFD9DE",
"O+	c #B8C9C5",
"P+	c #44A355",
"Q+	c #84CBB7",
"R+	c #979686",
"S+	c #B3CACE",
"T+	c #B1B8AA",
"U+	c #C4EDFC",
"V+	c #8D836D",
"W+	c #B7CFD4",
"X+	c #A5987A",
"Y+	c #9F8962",
"Z+	c #987949",
"`+	c #C6ECFC",
" @	c #C8EEFF",
".@	c #8C816B",
"+@	c #A6B0AB",
"@@	c #9D855C",
"#@	c #A39270",
"$@	c #9D8359",
"%@	c #BBD0CF",
"&@	c #A4ADA4",
"*@	c #806646",
"=@	c #956D38",
"-@	c #A39473",
";@	c #A08B66",
">@	c #B3BBAF",
",@	c #C8F0FF",
"'@	c #C7F0FF",
")@	c #B8D2D9",
"!@	c #BFDFE7",
"~@	c #92662D",
"{@	c #99794A",
"]@	c #A49677",
"^@	c #AEAF9B",
"/@	c #C3EAF7",
"(@	c #9B9A8D",
"_@	c #A18E6A",
":@	c #A8A28A",
"<@	c #7D6442",
"[@	c #6F491E",
"}@	c #8E6126",
"|@	c #906329",
"1@	c #9C8157",
"2@	c #C9EFFF",
"3@	c #C5EEFF",
"4@	c #C6F0FF",
"5@	c #8A775C",
"6@	c #764C1D",
"7@	c #8B5E24",
"8@	c #9D6D33",
"9@	c #8E6233",
"0@	c #9D6D35",
"a@	c #94662B",
"b@	c #BA864B",
"c@	c #F4BB7F",
"d@	c #F3BB7E",
"e@	c #CF995D",
"f@	c #C08C50",
"g@	c #EEB77A",
"h@	c #F3BB7D",
"i@	c #F4BB7E",
"j@	c #F3BC7F",
"k@	c #F5C286",
"l@	c #F4BF85",
"m@	c #F4BD81",
"n@	c #F2BB7E",
"o@	c #FFD18C",
"p@	c #FFD28B",
"q@	c #FFDFA3",
"r@	c #FEE3AE",
"s@	c #FFE5B2",
"t@	c #FFE7B4",
"u@	c #FFE6B3",
"v@	c #FFE6B5",
"w@	c #FFE7B5",
"x@	c #FFE8B4",
"y@	c #FFE6B4",
"z@	c #FFD18B",
"A@	c #FFD490",
"B@	c #FFE2AB",
"C@	c #FFE4B1",
"D@	c #FFDC9E",
"E@	c #FFD08B",
"F@	c #FFD28C",
"G@	c #FFD28E",
"H@	c #FFD797",
"I@	c #FFDCA0",
"J@	c #FFDFA8",
"K@	c #FFE3AC",
"L@	c #FFE1AA",
"M@	c #FFDFA5",
"N@	c #FFDB9E",
"O@	c #FFD998",
"P@	c #FFD591",
"Q@	c #FFD18A",
"R@	c #FFD08A",
"S@	c #FFD28A",
"T@	c #FFD08C",
"U@	c #FFCF8C",
"                                                                                                ",
"                                                                                                ",
"                                                                                                ",
"                                                                                                ",
"                                                                                                ",
"                                                                                                ",
"                                              . . . . + @ #                                     ",
"                                            . $ % . . & . * =                                   ",
"                              - ; ; ; ;     > , ' + ) ! . . ~ {         ] ^                     ",
"                            ; ; ; ; ; ; ; , / ; ; ( _ : . . < [     } . . . . |                 ",
"                            ; ; ; ; { ; ; 1 2 ; ; 3 4 5 6 7 . 8   9 . . 0 . a . . b             ",
"                            ; { [ c d e ; ; f - g h i j k l m 0 | . . . n . o . . .             ",
"                            ; p . . . q r ; s t . . . . u v w . . . . . x y z A . . .           ",
"                            B . C . < D E F . . . . . . . . G H . | . 0       I F J . 9         ",
"                } } .       . . K L M N n . . 8 . O . P Q R S T . . . . U           V W         ",
"            | . . . . |     . X Y ; ; Z ` .  ...+.@.#.$.%.&.*.=.. . . . . -.                    ",
"          . . 8 ;.>.. . } } ,.# '.).!.~.{.].^./.(.; _.:.<.; [.}.. . . |.. . 1.                  ",
"          . . 2.3.4.5.6.7.. 8.9.0 . . 0.a.b.c.d.e.f.g.    ;   | . . . h.. . i.                  ",
"        9 j.#.k.    l.m.$ n.o.p.. . . . . q.r.s.t.u.v.        q w.8 . x.y.z.% A.                ",
"        B.      C.. . . . D.E.F.G.H.I.J.. K.L.M.N.O.; P.      . Q.. . . R.S.. T.                ",
"                i.. . . . U.V.W.X.Y.Z.`.j. +.+++@+; ;           #+. . $+  . 7.%+                ",
"              &+. . . . . *+=+-+;+>+,+'+)+!+~+{+L.]+;         ^+ .. . .   /+(+                  ",
"              _+. :+<+. 7.[+L.}+|+1+2+3+L.4+5+6+L.              7+. .       8+                  ",
"              9+. 0+a+. b+c+L.L.d+e+f+g+h+i+j+L.k+              l+P .                           ",
"              m+n+L.o+. p+q+L.L.r+s+L.t+u+v+w+L.L.x+              y+.                           ",
"                z+L.A+. B+C+L.L.D+E+L.F+G+H+L.L.L.L.L.                                          ",
"                I+L.J+P K+L+L.L.M+r+L.N+G+O+L.L.L.L.r.        x+                                ",
"                  L.6+P+Q+L.L.L.R+S+L.T+G+M.L.L.L.L.x+    k+L.L.L.                              ",
"                  L.L.U+L.L.L.L.V+W+L.X+Y+Z+`+L.L.L. @    L.L.L.L.                              ",
"                   @L.L.L.L.L.L..@+@L.@@#@$@%@L.L.L.L.I+L.L.L.L.k+                              ",
"                  r.L.L.L.L.L.L.&@*@L.=@-@;@>@L.L.L.L.L.L.L.L.L.L.,@                            ",
"                '@L.L.L.L.L.L.L.)@:.!@~@{@]@^@L.L.L.L.L.L.L.L.L.L.L.L.L.L.L.L.I+I+              ",
"              k+L.L.L.L.L.L.L.L./@:.(@G+G+_@:@L.L.L.L.L.L.L.L.L.L.L.L.L.L.L.L.L.L.L.            ",
"            L.L.L.L.L.L.L.L.L.L.L.<@[@}@G+|@1@2@L.3@L.k+L.I+ @'@4@I+'@k+L.L.L.L.L.L.            ",
"                      L.3@x+,@x+I+5@6@7@G+G+8@                                                  ",
"                                    9@0@a@G+b@c@                                                ",
"                                    d@d@e@f@g@d@h@                                              ",
"                                  i@d@j@k@l@m@j@d@n@                                            ",
"                          o@p@p@q@r@s@t@t@t@t@u@        t@v@w@t@x@y@y@s@                        ",
"                  z@p@z@z@z@z@z@A@B@t@t@t@t@t@t@t@x@t@t@t@t@t@t@t@x@C@D@z@z@z@z@E@              ",
"            F@z@z@z@z@z@z@z@z@z@z@z@G@H@I@J@K@B@B@B@B@B@L@M@N@O@P@z@z@z@z@z@z@z@z@E@            ",
"              Q@z@z@z@z@z@R@z@z@z@z@z@z@z@z@z@z@z@z@z@z@z@z@z@z@z@z@z@z@z@z@R@z@p@z@            ",
"                          E@z@z@z@z@z@z@z@z@z@z@z@z@z@z@z@z@z@z@z@z@z@z@E@S@                    ",
"                                                z@o@p@p@T@z@U@z@                                ",
"                                                                                                ",
"                                                                                                ",
"                                                                                                ",
"                                                                                                "};
