<?xml version="1.0" encoding="UTF-8" standalone="no"?>
<svg
   xmlns:dc="http://purl.org/dc/elements/1.1/"
   xmlns:cc="http://creativecommons.org/ns#"
   xmlns:rdf="http://www.w3.org/1999/02/22-rdf-syntax-ns#"
   xmlns:svg="http://www.w3.org/2000/svg"
   xmlns="http://www.w3.org/2000/svg"
   xmlns:sodipodi="http://sodipodi.sourceforge.net/DTD/sodipodi-0.dtd"
   xmlns:inkscape="http://www.inkscape.org/namespaces/inkscape"
   width="145pt"
   height="136pt"
   viewBox="0 0 145 136"
   version="1.1"
   id="svg2"
   inkscape:version="0.48.3.1 r9886"
   sodipodi:docname="coloane.svg"
   inkscape:export-filename="/home/clement/Documents/Coloane/svn/trunk/application/core/resources/icons/coloane_128.png"
   inkscape:export-xdpi="63.55862"
   inkscape:export-ydpi="63.55862">
  <metadata
     id="metadata92">
    <rdf:RDF>
      <cc:Work
         rdf:about="">
        <dc:format>image/svg+xml</dc:format>
        <dc:type
           rdf:resource="http://purl.org/dc/dcmitype/StillImage" />
        <dc:title></dc:title>
      </cc:Work>
    </rdf:RDF>
  </metadata>
  <defs
     id="defs90" />
  <sodipodi:namedview
     pagecolor="#ffffff"
     bordercolor="#666666"
     borderopacity="1"
     objecttolerance="10"
     gridtolerance="10"
     guidetolerance="10"
     inkscape:pageopacity="0"
     inkscape:pageshadow="2"
     inkscape:window-width="1596"
     inkscape:window-height="1176"
     id="namedview88"
     showgrid="false"
     inkscape:zoom="1.3882353"
     inkscape:cx="90.625"
     inkscape:cy="85"
     inkscape:window-x="1280"
     inkscape:window-y="20"
     inkscape:window-maximized="0"
     inkscape:current-layer="svg2" />
  <path
     fill="#7db222"
     stroke="#7db222"
     stroke-width="0.09375"
     d=" M 70.1 9.2 C 74.3 7.0 79.4 7.4 83.7 9.0 C 88.7 11.4 92.5 15.8 94.7 20.9 C 95.3 22.9 95.7 25.0 96.2 27.1 C 99.9 21.5 105.7 16.0 113.0 16.5 C 123.3 17.2 130.6 26.7 133.0 36.0 L 132.5 36.8 L 131.7 36.2 C 127.9 33.0 123.0 31.4 118.1 31.0 C 117.3 28.4 116.8 25.7 116.3 23.0 C 116.0 24.1 115.6 25.1 115.3 26.2 C 114.9 27.9 114.5 29.5 114.0 31.1 L 112.9 31.1 C 109.9 30.1 110.8 26.5 110.5 24.0 C 109.8 25.2 109.4 26.4 109.3 27.7 C 109.8 32.4 104.4 32.7 101.2 31.4 C 101.6 31.6 102.3 32.0 102.6 32.2 C 105.3 32.4 108.2 32.7 110.5 34.1 C 112.8 36.3 115.7 38.0 117.1 41.0 C 119.9 47.0 118.0 53.7 116.5 59.8 C 115.8 61.2 114.7 59.5 114.5 58.6 C 113.6 56.8 112.6 55.1 111.8 53.3 C 111.9 52.5 112.1 50.9 112.2 50.2 C 112.7 49.3 112.9 48.3 112.8 47.3 C 111.3 46.8 110.6 49.1 111.3 50.1 C 109.5 50.1 108.9 48.0 107.5 47.2 C 107.9 54.0 108.0 61.6 104.1 67.4 L 103.0 67.0 C 99.2 64.1 97.3 59.5 96.4 54.9 C 97.3 52.2 98.9 49.8 99.9 47.1 C 98.9 47.9 97.7 48.7 97.1 49.9 C 96.2 50.5 95.2 50.9 94.0 51.2 C 93.4 48.0 93.7 44.7 94.7 41.6 L 92.8 42.0 C 93.0 41.6 93.4 40.8 93.6 40.4 C 94.9 38.2 94.9 35.7 94.7 33.3 C 94.4 33.3 93.8 33.1 93.5 33.1 C 87.3 32.5 83.1 38.6 77.1 39.1 C 76.9 37.7 76.8 36.4 76.6 35.0 C 76.3 36.2 76.0 37.5 75.7 38.8 C 73.9 39.5 72.2 41.2 70.1 40.9 C 70.3 39.3 70.6 37.6 70.8 36.0 C 69.0 39.4 66.9 43.0 63.0 44.4 C 63.2 44.9 63.7 46.0 63.9 46.5 C 65.4 49.5 65.8 52.9 65.4 56.1 C 62.3 55.9 60.8 53.1 59.3 50.8 C 59.3 51.5 59.3 53.0 59.3 53.7 C 57.8 53.2 56.5 52.5 55.1 51.7 C 55.0 51.1 54.7 49.9 54.6 49.2 C 54.3 50.2 53.8 51.1 53.3 51.9 C 49.1 50.5 45.8 46.5 41.1 46.7 L 40.9 47.5 C 40.7 49.6 41.1 51.7 41.9 53.6 C 41.3 54.1 41.1 54.8 41.3 55.6 C 41.6 57.5 41.7 59.5 41.5 61.4 C 40.8 61.3 39.3 60.9 38.5 60.7 C 38.3 60.5 37.9 59.9 37.6 59.7 C 38.3 62.0 40.2 64.4 39.0 66.9 C 38.2 69.9 36.6 72.6 34.5 74.9 C 34.2 74.7 33.5 74.2 33.1 74.0 C 31.1 69.2 30.9 64.0 31.0 58.8 C 30.1 59.6 29.2 60.3 28.3 61.1 C 28.0 63.7 27.0 66.1 25.7 68.3 C 23.2 67.0 23.5 63.5 23.0 61.1 C 22.3 56.9 24.2 53.2 26.0 49.6 L 26.2 49.1 C 28.8 47.1 32.0 46.6 35.2 46.2 C 36.2 46.2 37.1 45.9 37.8 45.3 C 35.6 44.7 33.3 44.9 31.1 45.1 L 29.6 44.7 C 29.7 43.1 29.7 41.6 29.6 40.0 C 29.2 41.5 28.9 43.0 28.5 44.4 C 28.2 44.6 27.4 45.1 27.0 45.3 L 26.2 45.2 C 26.0 44.4 25.6 42.8 25.4 42.0 C 25.1 41.3 24.8 40.6 24.5 40.0 C 23.8 41.7 24.5 44.8 22.2 45.3 C 18.8 46.0 15.5 47.4 12.8 49.8 L 12.1 49.8 C 13.4 43.5 17.1 37.1 23.3 34.4 C 27.5 32.4 32.7 33.7 35.8 37.2 C 37.5 38.3 38.2 40.6 39.9 41.5 C 40.5 34.8 45.1 27.8 52.1 26.6 C 55.0 25.7 58.1 26.8 60.6 28.3 C 61.6 29.9 62.4 31.6 63.6 33.1 C 65.5 29.4 69.3 27.4 73.3 26.7 C 73.7 26.6 74.6 26.4 75.0 26.3 C 78.5 26.7 81.9 27.0 85.4 26.9 C 87.8 27.5 90.3 28.0 92.7 28.8 C 92.2 28.2 91.8 27.6 91.3 27.1 C 89.9 23.2 85.3 22.7 82.2 20.9 L 81.8 19.8 C 83.3 19.3 83.4 18.7 82.2 18.0 C 83.0 16.8 83.6 15.4 84.1 14.0 C 81.8 14.6 81.3 17.4 79.9 19.1 C 77.3 18.6 74.7 17.8 72.1 16.9 C 72.3 16.0 72.5 15.1 72.7 14.2 C 70.8 17.1 67.6 18.6 64.3 19.5 C 64.0 19.2 63.6 18.6 63.4 18.4 L 64.7 18.9 C 64.7 15.0 66.7 11.1 70.1 9.2 Z"
     id="path6" />
  <path
     fill="#008530"
     stroke="#008530"
     stroke-width="0.09375"
     d=" M 83.7 9.0 C 88.4 9.2 92.5 12.2 95.4 15.7 C 96.6 17.4 99.0 19.2 96.8 21.2 C 96.3 21.1 95.2 20.9 94.7 20.9 C 92.5 15.8 88.7 11.4 83.7 9.0 Z"
     id="path8" />
  <path
     fill="#008530"
     stroke="#008530"
     stroke-width="0.09375"
     d=" M 45.2 17.2 C 50.3 12.7 59.0 13.1 63.4 18.4 C 63.6 18.6 64.0 19.2 64.3 19.5 C 67.6 18.6 70.8 17.1 72.7 14.2 C 72.5 15.1 72.3 16.0 72.1 16.9 C 74.7 17.8 77.3 18.6 79.9 19.1 C 81.3 17.4 81.8 14.6 84.1 14.0 C 83.6 15.4 83.0 16.8 82.2 18.0 C 82.1 18.5 81.9 19.3 81.8 19.8 L 82.2 20.9 C 85.3 22.7 89.9 23.2 91.3 27.1 C 88.6 24.8 85.2 23.4 81.8 22.6 C 81.3 22.9 80.3 23.5 79.8 23.9 C 79.4 23.5 78.7 22.7 78.4 22.3 C 77.8 24.9 75.3 25.4 73.3 26.7 C 69.3 27.4 65.5 29.4 63.6 33.1 C 62.4 31.6 61.6 29.9 60.6 28.3 C 62.0 27.9 63.5 27.7 65.0 27.6 C 62.5 25.2 58.8 25.7 55.7 26.1 C 54.6 23.9 55.4 21.5 55.4 19.2 C 54.2 21.0 54.1 23.3 53.7 25.4 C 51.7 25.8 49.6 26.1 47.5 26.7 C 47.2 26.3 46.6 25.4 46.3 25.0 C 46.2 27.4 44.3 30.6 41.9 30.6 C 40.3 26.0 41.3 20.4 45.2 17.2 Z"
     id="path10" />
  <path
     fill="#fdffff"
     stroke="#fdffff"
     stroke-width="0.09375"
     d=" M 82.2 18.0 C 83.4 18.7 83.3 19.3 81.8 19.8 C 81.9 19.3 82.1 18.5 82.2 18.0 Z"
     id="path12" />
  <path
     fill="#fdffff"
     stroke="#fdffff"
     stroke-width="0.09375"
     d=" M 65.8 21.6 C 66.3 20.3 68.1 20.6 69.1 20.0 C 68.5 21.6 68.0 23.2 67.6 24.9 C 67.0 23.8 66.4 22.7 65.8 21.6 Z"
     id="path14" />
  <path
     fill="#fdffff"
     stroke="#fdffff"
     stroke-width="0.09375"
     d=" M 73.3 26.7 C 75.3 25.4 77.8 24.9 78.4 22.3 C 78.7 22.7 79.4 23.5 79.8 23.9 C 80.3 23.5 81.3 22.9 81.8 22.6 C 85.2 23.4 88.6 24.8 91.3 27.1 C 91.8 27.6 92.2 28.2 92.7 28.8 C 90.3 28.0 87.8 27.5 85.4 26.9 C 82.3 25.1 78.4 25.2 75.0 26.3 C 74.6 26.4 73.7 26.6 73.3 26.7 Z"
     id="path16" />
  <path
     fill="#008530"
     stroke="#008530"
     stroke-width="0.09375"
     d=" M 116.3 23.0 C 116.8 25.7 117.3 28.4 118.1 31.0 C 123.0 31.4 127.9 33.0 131.7 36.2 L 132.0 38.2 C 127.5 35.0 122.4 32.4 116.8 32.1 C 116.4 30.1 116.0 28.1 115.3 26.2 C 115.6 25.1 116.0 24.1 116.3 23.0 Z"
     id="path18" />
  <path
     fill="#008530"
     stroke="#008530"
     stroke-width="0.09375"
     d=" M 109.3 27.7 C 109.4 26.4 109.8 25.2 110.5 24.0 C 110.8 26.5 109.9 30.1 112.9 31.1 L 113.2 32.3 C 110.2 32.6 109.2 30.3 109.3 27.7 Z"
     id="path20" />
  <path
     fill="#008530"
     stroke="#008530"
     stroke-width="0.09375"
     d=" M 75.0 26.3 C 78.4 25.2 82.3 25.1 85.4 26.9 C 81.9 27.0 78.5 26.7 75.0 26.3 Z"
     id="path22" />
  <path
     fill="#008530"
     stroke="#008530"
     stroke-width="0.09375"
     d=" M 49.1 31.9 C 50.6 32.7 50.8 34.9 52.2 35.6 C 54.1 34.8 57.8 35.1 57.4 32.3 C 58.8 34.4 61.3 34.7 63.3 35.9 C 63.0 36.2 62.4 36.8 62.1 37.1 C 60.1 38.1 58.9 40.2 57.3 41.6 C 52.8 41.6 48.4 42.0 44.0 42.6 C 43.7 42.5 43.3 42.3 43.0 42.1 C 44.1 39.1 47.9 38.7 50.2 37.0 C 50.3 35.3 49.3 33.7 49.1 31.9 Z"
     id="path24" />
  <path
     fill="#008530"
     stroke="#008530"
     stroke-width="0.09375"
     d=" M 77.1 39.1 C 83.1 38.6 87.3 32.5 93.5 33.1 C 86.2 35.6 79.7 40.0 74.7 45.8 L 73.3 45.8 C 73.5 45.1 73.7 43.6 73.9 42.9 C 72.9 43.9 72.3 45.4 70.9 45.8 C 70.4 44.3 69.9 42.7 69.5 41.2 C 68.6 42.4 67.7 43.6 66.7 44.7 C 65.8 45.3 64.9 45.9 63.9 46.5 C 63.7 46.0 63.2 44.9 63.0 44.4 C 66.9 43.0 69.0 39.4 70.8 36.0 C 70.6 37.6 70.3 39.3 70.1 40.9 C 72.2 41.2 73.9 39.5 75.7 38.8 C 76.0 37.5 76.3 36.2 76.6 35.0 C 76.8 36.4 76.9 37.7 77.1 39.1 Z"
     id="path26" />
  <path
     fill="#6e461b"
     stroke="#6e461b"
     stroke-width="0.09375"
     d=" M 93.5 33.1 C 93.8 33.1 94.4 33.3 94.7 33.3 C 94.9 35.7 94.9 38.2 93.6 40.4 C 93.0 40.2 91.7 39.8 91.1 39.6 C 90.4 38.8 89.7 38.1 89.0 37.3 C 87.5 38.3 86.1 39.3 84.8 40.4 C 83.9 41.2 83.0 42.0 82.1 42.9 C 79.7 45.1 77.4 47.5 75.4 50.0 C 75.3 48.6 75.1 47.2 74.7 45.8 C 79.7 40.0 86.2 35.6 93.5 33.1 Z"
     id="path28" />
  <path
     fill="#008530"
     stroke="#008530"
     stroke-width="0.09375"
     d=" M 110.5 34.1 C 115.6 35.8 119.2 40.7 119.8 45.9 C 120.5 50.6 119.0 55.1 117.7 59.5 L 116.5 59.8 C 118.0 53.7 119.9 47.0 117.1 41.0 C 115.7 38.0 112.8 36.3 110.5 34.1 Z"
     id="path30" />
  <path
     fill="#6e461b"
     stroke="#6e461b"
     stroke-width="0.09375"
     d=" M 57.3 41.6 C 58.9 40.2 60.1 38.1 62.1 37.1 C 62.1 38.4 62.0 39.8 61.2 40.9 C 60.9 41.4 60.4 42.4 60.1 42.8 C 59.2 42.4 58.2 42.0 57.3 41.6 Z"
     id="path32" />
  <path
     fill="#008530"
     stroke="#008530"
     stroke-width="0.09375"
     d=" M 84.8 40.4 C 86.1 39.3 87.5 38.3 89.0 37.3 C 89.7 38.1 90.4 38.8 91.1 39.6 C 90.5 41.6 92.3 45.3 89.4 45.9 C 87.7 44.2 85.6 42.7 84.8 40.4 Z"
     id="path34" />
  <path
     fill="#008530"
     stroke="#008530"
     stroke-width="0.09375"
     d=" M 24.5 40.0 C 24.8 40.6 25.1 41.3 25.4 42.0 C 24.9 43.4 24.6 44.8 24.2 46.1 C 20.0 46.4 16.3 48.6 13.0 51.0 L 12.8 49.8 C 15.5 47.4 18.8 46.0 22.2 45.3 C 24.5 44.8 23.8 41.7 24.5 40.0 Z"
     id="path36" />
  <path
     fill="#008530"
     stroke="#008530"
     stroke-width="0.09375"
     d=" M 29.6 40.0 C 29.7 41.6 29.7 43.1 29.6 44.7 L 29.6 45.5 C 28.8 45.8 28.0 46.1 27.2 46.5 C 27.2 46.2 27.1 45.6 27.0 45.3 C 27.4 45.1 28.2 44.6 28.5 44.4 C 28.9 43.0 29.2 41.5 29.6 40.0 Z"
     id="path38" />
  <path
     fill="#9fc3a3"
     stroke="#9fc3a3"
     stroke-width="0.09375"
     d=" M 61.2 40.9 C 63.5 41.3 61.4 45.7 60.1 42.8 C 60.4 42.4 60.9 41.4 61.2 40.9 Z"
     id="path40" />
  <path
     fill="#fdffff"
     stroke="#fdffff"
     stroke-width="0.09375"
     d=" M 69.5 41.2 C 69.9 42.7 70.4 44.3 70.9 45.8 C 72.3 45.4 72.9 43.9 73.9 42.9 C 73.7 43.6 73.5 45.1 73.3 45.8 C 73.1 46.5 72.9 47.2 72.6 47.8 C 70.8 46.5 68.8 45.5 66.7 44.7 C 67.7 43.6 68.6 42.4 69.5 41.2 Z"
     id="path42" />
  <path
     fill="#008530"
     stroke="#008530"
     stroke-width="0.09375"
     d=" M 107.1 42.0 C 107.2 41.9 107.6 41.5 107.7 41.4 L 107.7 42.0 L 107.1 42.0 Z"
     id="path44" />
  <path
     fill="#9fc3a3"
     stroke="#9fc3a3"
     stroke-width="0.09375"
     d=" M 43.0 42.1 C 43.3 42.3 43.7 42.5 44.0 42.6 C 43.7 42.5 43.3 42.3 43.0 42.1 Z"
     id="path46" />
  <path
     fill="#9fc3a3"
     stroke="#9fc3a3"
     stroke-width="0.09375"
     d=" M 107.1 42.0 L 107.7 42.0 C 109.5 44.1 105.3 44.1 107.1 42.0 Z"
     id="path48" />
  <path
     fill="#008530"
     stroke="#008530"
     stroke-width="0.09375"
     d=" M 75.4 50.0 C 77.4 47.5 79.7 45.1 82.1 42.9 C 82.9 47.1 83.5 51.4 82.6 55.6 C 81.7 56.2 81.1 57.0 80.8 58.0 C 79.6 57.8 78.4 57.4 77.4 56.6 C 75.9 55.3 75.0 53.5 73.4 52.3 C 74.1 51.5 74.7 50.8 75.4 50.0 Z"
     id="path50" />
  <path
     fill="#008530"
     stroke="#008530"
     stroke-width="0.09375"
     d=" M 31.1 45.1 C 33.3 44.9 35.6 44.7 37.8 45.3 C 37.1 45.9 36.2 46.2 35.2 46.2 C 34.0 45.9 31.0 47.1 31.1 45.1 Z"
     id="path52" />
  <path
     fill="#c7efff"
     stroke="#c7efff"
     stroke-width="0.09375"
     d=" M 63.9 46.5 C 64.9 45.9 65.8 45.3 66.7 44.7 C 68.8 45.5 70.8 46.5 72.6 47.8 C 69.0 51.9 65.8 56.4 63.3 61.3 C 62.8 62.4 62.3 63.6 61.3 64.3 C 59.5 61.7 57.7 59.0 55.4 56.7 L 55.5 55.5 C 55.0 54.7 54.5 53.9 54.0 53.1 C 52.7 53.6 51.6 53.3 50.8 52.1 C 52.6 52.7 54.5 53.1 56.4 53.5 C 57.2 54.9 58.8 55.8 59.8 54.0 C 60.8 55.8 62.4 57.1 64.3 58.0 C 64.6 57.5 65.2 56.6 65.4 56.1 C 65.8 52.9 65.4 49.5 63.9 46.5 Z"
     id="path54" />
  <path
     fill="#906227"
     stroke="#906227"
     stroke-width="0.09375"
     d=" M 73.3 45.8 L 74.7 45.8 C 75.1 47.2 75.3 48.6 75.4 50.0 C 74.7 50.8 74.1 51.5 73.4 52.3 C 69.8 57.8 65.9 63.5 64.5 70.0 C 67.6 76.9 69.2 84.5 68.8 92.1 C 68.8 93.4 68.7 94.7 68.6 96.0 C 68.4 97.4 68.5 98.8 68.7 100.2 C 66.8 100.2 65.3 101.0 64.4 102.7 C 63.1 102.0 61.7 101.3 60.4 100.8 C 60.4 100.4 60.5 99.5 60.6 99.1 C 59.7 99.3 58.9 99.6 58.1 99.8 C 57.8 99.7 57.4 99.6 57.1 99.5 C 58.5 98.3 58.0 96.6 57.7 95.1 C 56.3 95.5 54.9 95.9 53.4 96.3 C 54.6 94.8 56.2 93.8 57.7 92.7 C 57.3 92.0 57.0 91.3 56.6 90.6 C 57.9 88.7 57.0 86.1 57.3 84.0 C 57.2 78.5 59.0 73.4 60.0 68.1 C 58.6 65.0 56.1 62.5 54.7 59.4 C 54.9 58.7 55.2 57.4 55.4 56.7 C 57.7 59.0 59.5 61.7 61.3 64.3 C 62.3 63.6 62.8 62.4 63.3 61.3 C 65.8 56.4 69.0 51.9 72.6 47.8 C 72.9 47.2 73.1 46.5 73.3 45.8 Z"
     id="path56" />
  <path
     fill="#008530"
     stroke="#008530"
     stroke-width="0.09375"
     d=" M 41.1 46.7 C 45.8 46.5 49.1 50.5 53.3 51.9 C 53.8 51.1 54.3 50.2 54.6 49.2 C 54.7 49.9 55.0 51.1 55.1 51.7 C 56.5 52.5 57.8 53.2 59.3 53.7 C 59.3 53.0 59.3 51.5 59.3 50.8 C 60.8 53.1 62.3 55.9 65.4 56.1 C 65.2 56.6 64.6 57.5 64.3 58.0 C 62.4 57.1 60.8 55.8 59.8 54.0 C 58.8 55.8 57.2 54.9 56.4 53.5 C 54.5 53.1 52.6 52.7 50.8 52.1 C 47.7 50.1 44.8 47.2 40.9 47.5 L 41.1 46.7 Z"
     id="path58" />
  <path
     fill="#008530"
     stroke="#008530"
     stroke-width="0.09375"
     d=" M 97.1 49.9 C 97.7 48.7 98.9 47.9 99.9 47.1 C 98.9 49.8 97.3 52.2 96.4 54.9 C 97.3 59.5 99.2 64.1 103.0 67.0 C 102.5 69.7 100.3 67.7 99.3 66.5 C 96.7 63.3 95.4 59.1 94.9 55.0 C 95.6 53.3 97.4 52.0 97.1 49.9 Z"
     id="path60" />
  <path
     fill="#008530"
     stroke="#008530"
     stroke-width="0.09375"
     d=" M 111.3 50.1 C 110.6 49.1 111.3 46.8 112.8 47.3 C 112.9 48.3 112.7 49.3 112.2 50.2 L 111.3 50.1 Z"
     id="path62" />
  <path
     fill="#6e461b"
     stroke="#6e461b"
     stroke-width="0.09375"
     d=" M 40.9 47.5 C 44.8 47.2 47.7 50.1 50.8 52.1 C 51.6 53.3 52.7 53.6 54.0 53.1 C 54.5 53.9 55.0 54.7 55.5 55.5 L 55.4 56.7 C 55.2 57.4 54.9 58.7 54.7 59.4 C 53.2 61.2 53.3 63.7 52.8 65.8 C 51.5 74.2 52.1 83.2 56.6 90.6 C 57.0 91.3 57.3 92.0 57.7 92.7 C 56.2 93.8 54.6 94.8 53.4 96.3 C 54.9 95.9 56.3 95.5 57.7 95.1 C 58.0 96.6 58.5 98.3 57.1 99.5 C 56.4 99.4 54.8 99.3 54.0 99.3 C 53.4 98.0 52.8 96.8 52.3 95.5 C 48.4 85.2 47.7 73.7 50.2 63.0 C 50.7 60.8 51.3 58.6 51.8 56.4 C 50.5 55.1 49.2 53.8 47.9 52.4 C 47.3 51.0 45.2 49.3 44.1 51.2 C 43.5 51.8 42.4 53.0 41.9 53.6 C 41.1 51.7 40.7 49.6 40.9 47.5 Z"
     id="path64" />
  <path
     fill="#008530"
     stroke="#008530"
     stroke-width="0.09375"
     d=" M 23.7 68.4 C 21.5 62.4 20.5 54.1 26.0 49.6 C 24.2 53.2 22.3 56.9 23.0 61.1 C 23.5 63.5 23.2 67.0 25.7 68.3 C 25.5 68.5 25.1 68.8 24.9 69.0 C 24.6 68.8 24.0 68.6 23.7 68.4 Z"
     id="path66" />
  <path
     fill="#008530"
     stroke="#008530"
     stroke-width="0.09375"
     d=" M 44.1 51.2 C 45.2 49.3 47.3 51.0 47.9 52.4 C 46.5 53.5 44.9 52.5 44.1 51.2 Z"
     id="path68" />
  <path
     fill="#fdffff"
     stroke="#fdffff"
     stroke-width="0.09375"
     d=" M 41.9 53.6 C 42.4 53.0 43.5 51.8 44.1 51.2 C 44.9 52.5 46.5 53.5 47.9 52.4 C 49.2 53.8 50.5 55.1 51.8 56.4 C 51.3 58.6 50.7 60.8 50.2 63.0 C 48.4 59.5 45.4 56.2 41.3 55.6 C 41.1 54.8 41.3 54.1 41.9 53.6 Z"
     id="path70" />
  <path
     fill="#c7efff"
     stroke="#c7efff"
     stroke-width="0.09375"
     d=" M 73.4 52.3 C 75.0 53.5 75.9 55.3 77.4 56.6 C 77.1 59.4 75.2 61.5 74.1 63.9 C 76.2 64.6 78.9 64.6 80.3 66.7 C 82.7 70.0 81.2 74.3 80.3 77.9 C 82.3 78.3 84.3 78.8 86.0 79.9 C 87.2 76.5 88.6 72.6 92.2 71.2 C 94.8 70.1 98.9 70.0 100.3 73.0 C 101.5 76.2 99.4 79.2 98.0 81.9 C 100.3 81.9 102.4 82.6 103.9 84.4 C 109.7 82.9 116.2 82.4 121.7 85.4 C 125.2 86.8 129.1 89.6 128.8 93.9 C 125.2 94.6 121.6 93.6 117.9 93.9 C 111.6 94.4 105.2 93.9 99.0 93.0 C 88.9 93.1 78.8 93.2 68.8 92.1 C 69.2 84.5 67.6 76.9 64.5 70.0 C 65.9 63.5 69.8 57.8 73.4 52.3 Z"
     id="path72" />
  <path
     fill="#c7efff"
     stroke="#c7efff"
     stroke-width="0.09375"
     d=" M 41.3 55.6 C 45.4 56.2 48.4 59.5 50.2 63.0 C 47.7 73.7 48.4 85.2 52.3 95.5 C 44.9 95.4 37.2 96.4 30.0 94.6 C 25.4 94.6 20.8 94.6 16.2 94.7 C 16.3 90.8 20.4 88.4 23.9 88.0 C 24.1 87.4 24.6 86.3 24.9 85.8 C 25.8 85.5 26.7 85.2 27.6 84.9 C 28.0 83.5 28.4 82.0 29.3 80.8 C 27.3 77.1 24.7 73.4 24.9 69.0 C 25.1 68.8 25.5 68.5 25.7 68.3 C 27.0 66.1 28.0 63.7 28.3 61.1 C 29.2 60.3 30.1 59.6 31.0 58.8 C 30.9 64.0 31.1 69.2 33.1 74.0 C 33.5 74.2 34.2 74.7 34.5 74.9 C 34.8 75.1 35.5 75.5 35.8 75.7 C 39.0 72.8 40.3 68.5 40.7 64.4 C 40.0 63.2 39.3 62.0 38.5 60.7 C 39.3 60.9 40.8 61.3 41.5 61.4 C 41.7 59.5 41.6 57.5 41.3 55.6 Z"
     id="path74" />
  <path
     fill="#008530"
     stroke="#008530"
     stroke-width="0.09375"
     d=" M 37.6 59.7 C 37.9 59.9 38.3 60.5 38.5 60.7 C 39.3 62.0 40.0 63.2 40.7 64.4 C 40.3 68.5 39.0 72.8 35.8 75.7 C 35.5 75.5 34.8 75.1 34.5 74.9 C 36.6 72.6 38.2 69.9 39.0 66.9 C 40.2 64.4 38.3 62.0 37.6 59.7 Z"
     id="path76" />
  <path
     fill="#c7efff"
     stroke="#c7efff"
     stroke-width="0.09375"
     d=" M 52.8 65.8 C 53.3 63.7 53.2 61.2 54.7 59.4 C 56.1 62.5 58.6 65.0 60.0 68.1 C 59.0 73.4 57.2 78.5 57.3 84.0 C 57.0 86.1 57.9 88.7 56.6 90.6 C 52.1 83.2 51.5 74.2 52.8 65.8 Z"
     id="path78" />
  <path
     fill="#c7efff"
     stroke="#c7efff"
     stroke-width="0.09375"
     d=" M 62.8 76.4 C 63.0 76.4 63.3 76.2 63.5 76.2 C 64.7 81.0 65.1 86.0 64.6 90.9 C 62.1 86.7 62.4 81.2 62.8 76.4 Z"
     id="path80" />
  <path
     fill="#f3bb7e"
     stroke="#f3bb7e"
     stroke-width="0.09375"
     d=" M 68.6 96.0 C 70.2 96.1 70.4 98.0 71.2 99.0 C 74.4 100.3 77.4 102.6 78.9 105.8 C 76.6 106.2 74.4 106.6 72.1 106.0 C 65.6 105.0 58.8 105.8 52.3 106.6 C 51.0 106.2 49.8 105.8 48.6 105.5 C 50.2 104.6 51.8 103.4 53.8 103.6 C 54.0 102.2 54.1 100.7 54.0 99.3 C 54.8 99.3 56.4 99.4 57.1 99.5 C 57.4 99.6 57.8 99.7 58.1 99.8 C 58.9 99.6 59.7 99.3 60.6 99.1 C 60.5 99.5 60.4 100.4 60.4 100.8 C 61.7 101.3 63.1 102.0 64.4 102.7 C 65.3 101.0 66.8 100.2 68.7 100.2 C 68.5 98.8 68.4 97.4 68.6 96.0 Z"
     id="path82" />
  <path
     fill="#ffd18b"
     stroke="#ffd18b"
     stroke-width="0.09375"
     d=" M 34.9 108.2 C 39.6 108.1 43.9 105.2 48.6 105.5 C 49.8 105.8 51.0 106.2 52.3 106.6 C 51.0 107.0 49.6 107.3 48.2 107.5 C 53.1 112.6 60.5 112.4 66.9 113.6 C 79.1 113.4 91.6 114.7 103.5 111.3 C 105.6 110.6 108.5 110.4 109.1 107.7 C 113.2 107.7 117.4 107.7 121.4 108.6 C 122.5 109.2 124.9 109.4 124.2 111.1 C 123.7 111.2 122.7 111.5 122.2 111.6 C 124.1 113.3 127.0 112.6 129.1 114.1 C 129.7 115.5 128.3 116.6 127.0 116.7 C 123.8 117.4 120.5 117.3 117.2 117.3 C 116.8 118.1 116.4 119.0 116.0 119.8 C 104.6 122.5 92.7 122.3 81.1 122.5 C 69.7 122.5 58.4 122.4 47.1 121.4 C 43.9 120.7 39.4 122.1 37.2 119.3 C 38.6 118.6 40.6 118.6 41.4 117.0 C 35.6 116.9 29.8 117.1 24.0 117.0 C 22.3 117.3 21.2 115.9 21.7 114.3 C 20.4 114.0 18.5 114.1 18.9 112.2 C 24.3 111.2 29.3 108.6 34.9 108.2 Z"
     id="path84" />
  <path
     fill="#ffe7b4"
     stroke="#ffe7b4"
     stroke-width="0.09375"
     d=" M 52.3 106.6 C 58.8 105.8 65.6 105.0 72.1 106.0 C 71.7 106.4 70.8 107.2 70.4 107.6 C 75.5 110.6 82.6 110.0 87.8 107.6 C 87.3 107.2 86.5 106.5 86.0 106.2 C 93.7 104.7 101.5 106.4 109.1 107.7 C 108.5 110.4 105.6 110.6 103.5 111.3 C 91.6 114.7 79.1 113.4 66.9 113.6 C 60.5 112.4 53.1 112.6 48.2 107.5 C 49.6 107.3 51.0 107.0 52.3 106.6 Z"
     id="path86" />
</svg>
